<?xml version="1.0" standalone="no"?>
<!DOCTYPE svg PUBLIC "-//W3C//DTD SVG 20010904//EN"
 "http://www.w3.org/TR/2001/REC-SVG-20010904/DTD/svg10.dtd">
<svg version="1.0" xmlns="http://www.w3.org/2000/svg"
 width="512.000000pt" height="512.000000pt" viewBox="0 0 512.000000 512.000000"
 preserveAspectRatio="xMidYMid meet">
<metadata>
Created by potrace 1.16, written by Peter Selinger 2001-2019
</metadata>
<g transform="translate(0.000000,512.000000) scale(0.100000,-0.100000)"
fill="#8EC07C" stroke="none">
<path d="M2390 5104 c-250 -69 -439 -260 -497 -501 l-17 -73 -173 0 c-140 0
-173 3 -173 14 0 7 -16 45 -35 83 -108 217 -362 301 -580 194 -106 -53 -175
-133 -216 -253 -18 -52 -20 -79 -16 -156 4 -81 9 -102 40 -166 45 -89 112
-155 205 -199 63 -30 73 -32 182 -32 105 0 120 2 174 28 114 53 206 155 236
261 l13 46 171 0 172 0 17 -72 c24 -106 88 -226 165 -309 35 -38 63 -71 61
-73 -2 -2 -29 -11 -59 -21 -245 -79 -470 -274 -588 -510 -50 -100 -87 -218
-101 -319 -6 -42 -11 -208 -11 -367 l0 -289 -255 0 -255 0 -6 28 c-14 56 -67
146 -115 194 -120 120 -328 156 -486 83 -76 -35 -166 -124 -206 -204 -31 -63
-32 -71 -32 -186 0 -116 1 -123 33 -188 105 -214 362 -303 577 -202 100 48
191 150 220 248 l12 42 255 3 255 2 5 -102 c6 -123 30 -182 103 -246 63 -55
128 -76 219 -69 39 2 79 8 89 12 16 7 17 -26 17 -599 l0 -606 -171 2 -171 3
-17 50 c-61 173 -220 285 -405 285 -243 0 -427 -179 -430 -420 -1 -102 21
-177 73 -252 187 -268 598 -242 735 46 19 39 37 79 40 89 5 15 22 17 176 17
l170 0 0 -75 c0 -135 65 -246 182 -310 49 -28 60 -30 158 -30 96 0 110 3 158
28 68 36 124 94 159 165 l28 57 5 657 5 657 22 22 c29 29 77 29 106 0 l22 -22
5 -657 5 -657 33 -67 c36 -73 87 -124 161 -160 38 -19 62 -23 146 -23 84 0
108 4 146 23 70 34 122 84 160 154 l34 63 3 518 3 517 170 -2 170 -3 18 -53
c82 -242 359 -354 598 -242 163 75 266 273 235 450 -49 274 -322 434 -578 339
-116 -43 -228 -160 -257 -266 l-11 -43 -173 0 -173 0 0 176 c0 164 1 176 18
169 41 -17 159 -17 210 -1 64 22 135 84 170 150 l27 51 3 470 c4 488 -2 591
-38 708 l-18 57 283 0 283 0 13 -37 c64 -200 229 -312 441 -301 178 9 328 125
383 296 13 41 16 78 13 150 -3 83 -8 107 -34 162 -39 81 -96 145 -165 187
-238 142 -546 30 -635 -231 l-16 -46 -323 0 -323 0 -55 78 c-119 169 -315 315
-507 377 -30 10 -57 19 -59 21 -2 2 26 35 61 73 73 79 138 198 165 301 22 87
22 254 -1 340 -47 177 -169 336 -328 427 -20 12 -70 34 -110 49 -64 24 -91 28
-208 30 -99 3 -150 0 -190 -12z m350 -194 c140 -59 249 -171 295 -300 93 -265
-42 -550 -308 -648 -292 -109 -621 93 -668 410 -35 240 127 484 370 554 74 21
243 13 311 -16z m-1561 -236 c166 -49 232 -249 128 -386 -116 -152 -347 -122
-428 57 -57 125 17 280 158 331 50 17 79 17 142 -2z m1702 -940 c165 -31 315
-110 441 -232 38 -36 68 -69 68 -73 0 -5 -120 -9 -266 -11 l-266 -3 -24 -28
c-26 -31 -31 -66 -12 -100 24 -46 27 -46 364 -47 l321 0 16 -42 c51 -134 51
-135 55 -648 l3 -485 -23 -35 c-42 -62 -105 -77 -166 -40 -62 38 -62 40 -62
563 l0 474 -22 21 c-13 11 -35 23 -49 27 -35 9 -87 -18 -99 -51 -6 -14 -10
-84 -10 -155 l0 -129 -590 0 -590 0 0 130 c0 147 -10 179 -59 199 -34 15 -67
7 -98 -22 -23 -20 -23 -21 -23 -339 l0 -318 -125 0 -125 0 0 284 c0 318 10
408 61 535 43 109 93 185 178 274 125 131 268 211 441 248 117 24 537 27 661
3z m1885 -169 c104 -31 174 -127 174 -239 0 -75 -26 -132 -86 -185 -53 -46
-115 -66 -188 -58 -63 6 -102 25 -145 68 -96 95 -102 236 -15 337 70 82 157
108 260 77z m-1616 -1430 l0 -425 -195 0 -195 0 -45 34 c-28 22 -65 39 -100
46 -76 16 -151 -1 -210 -46 l-45 -34 -195 0 -195 0 0 250 0 250 128 0 c101 0
134 4 161 18 56 28 66 97 21 142 -18 18 -34 20 -165 20 l-145 0 0 85 0 85 590
0 590 0 0 -425z m-2609 387 c97 -50 151 -160 130 -261 -27 -133 -154 -225
-282 -205 -62 10 -139 62 -173 118 -35 55 -46 149 -27 209 16 49 87 126 136
148 63 29 151 25 216 -9z m1249 -377 c0 -81 -19 -129 -62 -155 -60 -37 -124
-22 -165 39 -19 28 -23 48 -23 107 l0 74 125 0 125 0 0 -65z m2424 -563 c121
-65 165 -212 101 -331 -83 -152 -278 -179 -398 -56 -76 79 -90 206 -31 301 31
51 112 109 163 117 48 8 116 -5 165 -31z m-1914 -387 l0 -335 -165 0 -165 0 0
335 0 335 165 0 165 0 0 -335z m850 0 l0 -335 -165 0 -165 0 0 335 0 335 165
0 165 0 0 -335z m-2025 -459 c55 -25 110 -81 131 -132 8 -19 14 -59 14 -91 0
-112 -70 -207 -174 -238 -66 -20 -95 -19 -160 5 -151 57 -208 239 -115 374 24
35 100 91 134 99 54 12 122 6 170 -17z m1175 -229 c0 -190 -6 -227 -47 -270
-81 -85 -194 -75 -260 22 -22 32 -23 43 -23 227 l0 194 165 0 165 0 0 -173z
m850 -12 c0 -165 -2 -190 -20 -225 -28 -55 -72 -83 -139 -88 -70 -5 -115 22
-148 88 -21 41 -23 57 -23 227 l0 183 165 0 165 0 0 -185z"/>
</g>
</svg>
